<?xml version="1.0" encoding="UTF-8"?>
<svg width="1872px" height="397px" viewBox="0 0 1872 397" version="1.1" xmlns="http://www.w3.org/2000/svg" xmlns:xlink="http://www.w3.org/1999/xlink">
    <title>Artboard Copy</title>
    <g id="Artboard-Copy" stroke="none" stroke-width="1" fill="none" fill-rule="evenodd">
        <g id="Group" transform="translate(-56.000000, -51.000000)">
            <path d="M249.895979,421.040574 C349.45896,421.040574 430.170704,340.32883 430.170704,240.765848 C430.170704,186.356157 348.729614,209.486519 310.617113,176.432504 C278.988468,149.001775 294.423091,77.167469 249.269802,77.167469 C149.70682,77.167469 69.6212534,141.202867 69.6212534,240.765848 C69.6212534,340.32883 150.332997,421.040574 249.895979,421.040574 Z" id="Oval" fill="#C3FDE3" transform="translate(249.895979, 249.104021) rotate(-135.000000) translate(-249.895979, -249.104021) "></path>
            <path d="M249.5,435 C297.808585,435 341.804128,416.533674 374.812808,386.274843 C411.806186,352.363267 435,303.640236 435,249.5 C435,193.51324 351.198335,217.314037 311.98114,183.301949 C279.435737,155.076139 295.962061,64 249.5,64 C147.051179,64 64,147.051179 64,249.5 C64,351.948821 147.051179,435 249.5,435 Z" id="Oval" fill="#0ADB7F"></path>
            <path d="M122,220 L264,220 C270.075132,220 275,224.924868 275,231 C275,237.075132 270.075132,242 264,242 L122,242 C115.924868,242 111,237.075132 111,231 C111,224.924868 115.924868,220 122,220 Z" id="Rectangle" fill="#81FFC8"></path>
            <path d="M122,262 L308,262 C314.075132,262 319,266.924868 319,273 C319,279.075132 314.075132,284 308,284 L122,284 C115.924868,284 111,279.075132 111,273 C111,266.924868 115.924868,262 122,262 Z" id="Rectangle" fill="#81FFC8"></path>
            <path d="M122,307 L210,307 C216.075132,307 221,311.924868 221,318 C221,324.075132 216.075132,329 210,329 L122,329 C115.924868,329 111,324.075132 111,318 C111,311.924868 115.924868,307 122,307 Z" id="Rectangle" fill="#81FFC8"></path>
        </g>
        <g id="Amanote" transform="translate(526.330000, 92.100000)" fill="#FFFFFF" fill-opacity="0.81288243" fill-rule="nonzero">
            <path d="M6.09,205.9 C4.54333333,205.9 3.14166667,205.271667 1.885,204.015 C0.628333333,202.758333 0,201.356667 0,199.81 C0,198.65 0.0966666667,197.78 0.29,197.2 L67.86,11.31 C69.7933333,5.70333333 73.66,2.9 79.46,2.9 L124.7,2.9 C130.5,2.9 134.366667,5.70333333 136.3,11.31 L203.87,197.2 C204.063333,197.78 204.16,198.65 204.16,199.81 C204.16,201.356667 203.531667,202.758333 202.275,204.015 C201.018333,205.271667 199.616667,205.9 198.07,205.9 L160.37,205.9 C155.73,205.9 152.443333,203.773333 150.51,199.52 L140.07,171.39 L64.09,171.39 L53.65,199.52 C51.7166667,203.773333 48.43,205.9 43.79,205.9 L6.09,205.9 Z M76.27,127.89 L127.89,127.89 L102.08,53.94 L76.27,127.89 Z" id="Shape"></path>
            <path d="M230.26,205.9 C228.326667,205.9 226.635,205.175 225.185,203.725 C223.735,202.275 223.01,200.583333 223.01,198.65 L223.01,62.35 C223.01,60.2233333 223.735,58.4833333 225.185,57.13 C226.635,55.7766667 228.326667,55.1 230.26,55.1 L263.9,55.1 C266.026667,55.1 267.766667,55.7766667 269.12,57.13 C270.473333,58.4833333 271.15,60.2233333 271.15,62.35 L271.15,72.21 C275.79,66.6033333 281.783333,61.8666667 289.13,58 C296.476667,54.1333333 304.79,52.2 314.07,52.2 C335.336667,52.2 349.933333,60.5133333 357.86,77.14 C362.5,69.7933333 368.976667,63.8 377.29,59.16 C385.603333,54.52 394.496667,52.2 403.97,52.2 C419.823333,52.2 432.728333,57.565 442.685,68.295 C452.641667,79.025 457.62,95.0233333 457.62,116.29 L457.62,198.65 C457.62,200.583333 456.943333,202.275 455.59,203.725 C454.236667,205.175 452.496667,205.9 450.37,205.9 L414.7,205.9 C412.573333,205.9 410.785,205.223333 409.335,203.87 C407.885,202.516667 407.16,200.776667 407.16,198.65 L407.16,118.32 C407.16,109.426667 405.275,102.901667 401.505,98.745 C397.735,94.5883333 392.66,92.51 386.28,92.51 C380.286667,92.51 375.405,94.5883333 371.635,98.745 C367.865,102.901667 365.98,109.426667 365.98,118.32 L365.98,198.65 C365.98,200.583333 365.303333,202.275 363.95,203.725 C362.596667,205.175 360.856667,205.9 358.73,205.9 L323.06,205.9 C320.933333,205.9 319.145,205.223333 317.695,203.87 C316.245,202.516667 315.52,200.776667 315.52,198.65 L315.52,118.32 C315.52,109.426667 313.586667,102.901667 309.72,98.745 C305.853333,94.5883333 300.826667,92.51 294.64,92.51 C288.646667,92.51 283.716667,94.5883333 279.85,98.745 C275.983333,102.901667 274.05,109.33 274.05,118.03 L274.05,198.65 C274.05,200.583333 273.373333,202.275 272.02,203.725 C270.666667,205.175 268.926667,205.9 266.8,205.9 L230.26,205.9 Z" id="Path"></path>
            <path d="M534.76,208.8 C524.513333,208.8 515.185,206.818333 506.775,202.855 C498.365,198.891667 491.791667,193.43 487.055,186.47 C482.318333,179.51 479.95,171.873333 479.95,163.56 C479.95,150.413333 485.411667,139.731667 496.335,131.515 C507.258333,123.298333 522.29,117.643333 541.43,114.55 L577.39,109.04 L577.39,105.56 C577.39,98.4066667 575.94,93.1866667 573.04,89.9 C570.14,86.6133333 565.21,84.97 558.25,84.97 C554.383333,84.97 551.145,85.6466667 548.535,87 C545.925,88.3533333 542.976667,90.3833333 539.69,93.09 C537.176667,95.2166667 534.953333,96.7633333 533.02,97.73 C532.246667,99.0833333 531.28,99.76 530.12,99.76 L496.48,99.76 C494.546667,99.76 492.951667,99.1316667 491.695,97.875 C490.438333,96.6183333 489.906667,95.12 490.1,93.38 C490.293333,88.16 492.903333,82.3116667 497.93,75.835 C502.956667,69.3583333 510.593333,63.8 520.84,59.16 C531.086667,54.52 543.75,52.2 558.83,52.2 C582.803333,52.2 600.59,57.4683333 612.19,68.005 C623.79,78.5416667 629.59,92.8 629.59,110.78 L629.59,198.65 C629.59,200.583333 628.913333,202.275 627.56,203.725 C626.206667,205.175 624.466667,205.9 622.34,205.9 L586.67,205.9 C584.736667,205.9 583.045,205.175 581.595,203.725 C580.145,202.275 579.42,200.583333 579.42,198.65 L579.42,188.5 C575.166667,194.493333 569.27,199.375 561.73,203.145 C554.19,206.915 545.2,208.8 534.76,208.8 Z M549.26,174.58 C557.766667,174.58 564.678333,171.776667 569.995,166.17 C575.311667,160.563333 577.97,152.443333 577.97,141.81 L577.97,138.33 L553.9,142.39 C537.66,145.483333 529.54,151.283333 529.54,159.79 C529.54,164.236667 531.425,167.813333 535.195,170.52 C538.965,173.226667 543.653333,174.58 549.26,174.58 Z" id="Shape"></path>
            <path d="M668.45,205.9 C666.516667,205.9 664.825,205.175 663.375,203.725 C661.925,202.275 661.2,200.583333 661.2,198.65 L661.2,62.35 C661.2,60.2233333 661.925,58.4833333 663.375,57.13 C664.825,55.7766667 666.516667,55.1 668.45,55.1 L704.12,55.1 C706.246667,55.1 707.986667,55.7766667 709.34,57.13 C710.693333,58.4833333 711.37,60.2233333 711.37,62.35 L711.37,73.37 C716.59,66.99 723.308333,61.8666667 731.525,58 C739.741667,54.1333333 749.166667,52.2 759.8,52.2 C770.82,52.2 780.631667,54.7133333 789.235,59.74 C797.838333,64.7666667 804.605,72.21 809.535,82.07 C814.465,91.93 816.93,103.82 816.93,117.74 L816.93,198.65 C816.93,200.583333 816.253333,202.275 814.9,203.725 C813.546667,205.175 811.806667,205.9 809.68,205.9 L771.11,205.9 C768.983333,205.9 767.195,205.223333 765.745,203.87 C764.295,202.516667 763.57,200.776667 763.57,198.65 L763.57,119.48 C763.57,110.78 761.491667,104.11 757.335,99.47 C753.178333,94.83 747.136667,92.51 739.21,92.51 C731.476667,92.51 725.386667,94.8783333 720.94,99.615 C716.493333,104.351667 714.27,110.973333 714.27,119.48 L714.27,198.65 C714.27,200.583333 713.593333,202.275 712.24,203.725 C710.886667,205.175 709.146667,205.9 707.02,205.9 L668.45,205.9 Z" id="Path"></path>
            <path d="M921.04,208.8 C896.68,208.8 877.975,203.145 864.925,191.835 C851.875,180.525 844.77,164.43 843.61,143.55 C843.416667,141.036667 843.32,136.686667 843.32,130.5 C843.32,124.313333 843.416667,119.963333 843.61,117.45 C844.77,96.9566667 852.068333,80.9583333 865.505,69.455 C878.941667,57.9516667 897.453333,52.2 921.04,52.2 C944.626667,52.2 963.138333,57.9516667 976.575,69.455 C990.011667,80.9583333 997.31,96.9566667 998.47,117.45 C998.856667,122.476667 999.05,126.826667 999.05,130.5 C999.05,134.173333 998.856667,138.523333 998.47,143.55 C997.31,164.43 990.205,180.525 977.155,191.835 C964.105,203.145 945.4,208.8 921.04,208.8 Z M921.04,172.26 C928.966667,172.26 934.863333,169.795 938.73,164.865 C942.596667,159.935 944.82,152.346667 945.4,142.1 C945.593333,140.166667 945.69,136.3 945.69,130.5 C945.69,124.7 945.593333,120.833333 945.4,118.9 C944.82,108.846667 942.596667,101.306667 938.73,96.28 C934.863333,91.2533333 928.966667,88.74 921.04,88.74 C913.113333,88.74 907.216667,91.2533333 903.35,96.28 C899.483333,101.306667 897.26,108.846667 896.68,118.9 L896.39,130.5 L896.68,142.1 C897.26,152.346667 899.483333,159.935 903.35,164.865 C907.216667,169.795 913.113333,172.26 921.04,172.26 Z" id="Shape"></path>
            <path d="M1105.77,205.9 C1064.78333,205.9 1044.29,186.663333 1044.29,148.19 L1044.29,94.54 L1021.38,94.54 C1019.44667,94.54 1017.755,93.815 1016.305,92.365 C1014.855,90.915 1014.13,89.2233333 1014.13,87.29 L1014.13,62.35 C1014.13,60.2233333 1014.855,58.4833333 1016.305,57.13 C1017.755,55.7766667 1019.44667,55.1 1021.38,55.1 L1044.29,55.1 L1044.29,7.25 C1044.29,5.12333333 1045.015,3.38333333 1046.465,2.03 C1047.915,0.676666667 1049.60667,0 1051.54,0 L1087.21,0 C1089.33667,0 1091.07667,0.676666667 1092.43,2.03 C1093.78333,3.38333333 1094.46,5.12333333 1094.46,7.25 L1094.46,55.1 L1130.71,55.1 C1132.83667,55.1 1134.625,55.7766667 1136.075,57.13 C1137.525,58.4833333 1138.25,60.2233333 1138.25,62.35 L1138.25,87.29 C1138.25,89.4166667 1137.525,91.1566667 1136.075,92.51 C1134.625,93.8633333 1132.83667,94.54 1130.71,94.54 L1094.46,94.54 L1094.46,143.84 C1094.46,150.606667 1095.71667,155.73 1098.23,159.21 C1100.74333,162.69 1104.80333,164.43 1110.41,164.43 L1133.32,164.43 C1135.44667,164.43 1137.18667,165.155 1138.54,166.605 C1139.89333,168.055 1140.57,169.843333 1140.57,171.97 L1140.57,198.65 C1140.57,200.583333 1139.89333,202.275 1138.54,203.725 C1137.18667,205.175 1135.44667,205.9 1133.32,205.9 L1105.77,205.9 Z" id="Path"></path>
            <path d="M1234.82,208.8 C1211.23333,208.8 1192.67333,202.468333 1179.14,189.805 C1165.60667,177.141667 1158.64667,158.726667 1158.26,134.56 L1158.26,125.57 C1159.03333,102.563333 1166.18667,84.5833333 1179.72,71.63 C1193.25333,58.6766667 1211.52333,52.2 1234.53,52.2 C1251.15667,52.2 1265.22167,55.535 1276.725,62.205 C1288.22833,68.875 1296.83167,78.0583333 1302.535,89.755 C1308.23833,101.451667 1311.09,114.743333 1311.09,129.63 L1311.09,136.88 C1311.09,139.006667 1310.365,140.795 1308.915,142.245 C1307.465,143.695 1305.67667,144.42 1303.55,144.42 L1211.62,144.42 L1211.62,146.16 C1211.81333,154.86 1213.84333,161.868333 1217.71,167.185 C1221.57667,172.501667 1227.08667,175.16 1234.24,175.16 C1238.88,175.16 1242.60167,174.241667 1245.405,172.405 C1248.20833,170.568333 1250.86667,168.2 1253.38,165.3 C1255.12,163.366667 1256.52167,162.158333 1257.585,161.675 C1258.64833,161.191667 1260.34,160.95 1262.66,160.95 L1300.65,160.95 C1302.39,160.95 1303.88833,161.481667 1305.145,162.545 C1306.40167,163.608333 1307.03,164.913333 1307.03,166.46 C1307.03,171.486667 1304.17833,177.383333 1298.475,184.15 C1292.77167,190.916667 1284.45833,196.716667 1273.535,201.55 C1262.61167,206.383333 1249.70667,208.8 1234.82,208.8 Z M1257.73,114.84 L1257.73,114.26 C1257.73,104.98 1255.7,97.7783333 1251.64,92.655 C1247.58,87.5316667 1241.87667,84.97 1234.53,84.97 C1227.18333,84.97 1221.52833,87.5316667 1217.565,92.655 C1213.60167,97.7783333 1211.62,104.98 1211.62,114.26 L1211.62,114.84 L1257.73,114.84 Z" id="Shape"></path>
        </g>
    </g>
</svg>